<?xml version="1.0" encoding="utf-8"?>
<!-- Generator: Adobe Illustrator 23.1.1, SVG Export Plug-In . SVG Version: 6.00 Build 0)  -->
<svg version="1.1" id="Layer_1" xmlns="http://www.w3.org/2000/svg" xmlns:xlink="http://www.w3.org/1999/xlink" x="0px" y="0px"
	 viewBox="0 0 60.2 101" style="enable-background:new 0 0 60.2 101;" xml:space="preserve">
<title>icons_animals_2</title>
<path d="M2.6,17.5l-0.1,0.4c-0.9,4.5,4.6,7.6,6.8,8.6c-0.8,3.1-3,14.1,2.7,22.6c6.3,9.5,5.2,18.3,3.4,22.4c-3.7,0.3-5.8,1.4-6.5,3.2
	c-1,2.6,1.6,5.4,1.9,5.7l0.3,0.3h33.9c0.1,3.1-1,5.5-3,7c-3.5,2.5-9.5,2.2-16.5-0.9c-3.8-1.7-7.2-1.5-9.2,0.5
	c-1.3,1.5-1.6,3.6-0.6,5.3c1.6,3.1,6.3,6,15.2,6c2,0,4.1-0.1,6.1-0.4c8.6-1.1,14.1-4.1,16.4-8.9c2.9-6.2-0.6-13.4-1.8-15.5
	c1.8-2.5,8.6-13.2,5.7-22.3c-3.3-10.9-12.6-16.2-20-20.4c-4.9-2.8-8.8-5.1-8.9-7.9c-0.3-9-4.8-12.6-7.8-14c-1-3.2-3.4-5.9-6.4-7.4
	l-1.3-0.5l-0.3,3.9l-7-3.1l2.2,11.3c-1.8,1.2-3.6,2.6-5,3.8L2.6,17.5z M8.3,5.5l4.2,1.8l-0.2,3.1c-0.5,0.4-1.5,1-2.6,1.8L8.3,5.5z
	 M13.7,11.9l0.4-0.3l0.5-7.1c2,1.4,3.5,3.4,4.2,5.8l0.1,0.5l0.4,0.2c2.5,1.1,6.6,4.1,7,12.4c0.2,3.9,4.5,6.4,10,9.5
	c7.1,4.1,16,9.2,19,19.3c3,9.2-5.7,21-5.8,21.1l-0.4,0.6l0.4,0.6c0,0.1,4.9,7.9,2,14.2c-2,4.2-7,6.8-14.9,7.7
	c-11.8,1.5-17.8-1.5-19.3-4.5c-0.6-0.9-0.5-2.2,0.3-3c0.8-0.7,1.8-1.1,2.9-1c1.4,0.1,2.7,0.4,4,1c7.6,3.4,14.4,3.6,18.5,0.7
	c2.8-2,4.2-5.4,3.8-9.7l-0.1-0.9H23.1c-0.4-1-0.4-2.2,0-3.2c0.5-0.8,1.5-1.2,3.1-1.2c3.8,0,4.9,0.9,4.9,0.9l0,0l1.4-1.4
	c-0.2-0.3-1.7-1.5-6.4-1.5c-1,0-2.1,0.2-3,0.6c0.9-5.4,1.4-10.8,1.5-16.3h-2c-0.1,4.9-1,18.4-3.5,21.7l0.3,0.2h-7.6
	c-0.6-0.8-1.6-2.2-1.2-3.3s2.4-1.8,5.4-2h0.6l0.2-0.5c2.8-5.7,2.8-15.7-3.3-24.9c-6-9-2.3-21.6-2.2-21.8l0.3-0.9L10.8,25
	c-0.1,0-6.7-2.8-6.4-6.4C7.7,15.9,13.7,11.9,13.7,11.9L13.7,11.9z"/>
</svg>
