<svg xmlns="http://www.w3.org/2000/svg" data-name="Layer 1" viewBox="0 0 100 125" x="0px" y="0px"><title>icons_animals_2</title><path d="M31.47,17.54l-.07.35c-.88,4.5,4.61,7.61,6.75,8.63-.79,3.14-3,14.11,2.71,22.6,6.3,9.45,5.22,18.29,3.44,22.43-3.69.33-5.83,1.38-6.54,3.21-1,2.61,1.58,5.39,1.88,5.7l.29.3H73.79c.05,3.13-1,5.53-3,7-3.49,2.49-9.5,2.15-16.49-.92-3.83-1.68-7.25-1.49-9.15.51a4.56,4.56,0,0,0-.59,5.33c1.57,3.1,6.35,6,15.24,6a49.58,49.58,0,0,0,6.09-.4C74.5,97.18,80,94.2,82.3,89.39c2.94-6.23-.59-13.41-1.77-15.5,1.77-2.54,8.63-13.25,5.7-22.34-3.32-10.89-12.55-16.18-20-20.43-4.94-2.83-8.84-5.07-8.95-7.86-.35-9-4.82-12.59-7.75-14A12.35,12.35,0,0,0,43.09,1.9l-1.27-.52-.29,3.86-7-3.07L36.74,13.5c-1.75,1.25-3.64,2.65-5,3.81Zm5.74-12,4.16,1.82-.23,3.1c-.51.35-1.47,1-2.61,1.79Zm5.44,6.31.41-.27.53-7.11a10.47,10.47,0,0,1,4.2,5.8l.13.46.44.19C50.82,12,55,15,55.32,23.33c.15,3.9,4.47,6.38,10,9.52,7.11,4.08,16,9.15,19.05,19.29,3,9.21-5.7,21-5.78,21.09l-.41.55.37.58c0,.08,4.94,7.94,2,14.17-2,4.15-7,6.75-14.88,7.73-11.82,1.46-17.78-1.51-19.3-4.5a2.55,2.55,0,0,1,.26-3,3.9,3.9,0,0,1,2.89-1,10.07,10.07,0,0,1,4,1c7.65,3.36,14.38,3.62,18.45.72,2.85-2,4.17-5.38,3.82-9.69l-.07-.92H52A4,4,0,0,1,52,75.7c.48-.75,1.53-1.15,3.1-1.17,3.76,0,4.9.92,4.91.92h0l1.44-1.39c-.25-.26-1.72-1.53-6.36-1.53a7.37,7.37,0,0,0-3,.61,111.11,111.11,0,0,0,1.55-16.27l-2,0c-.11,4.92-1,18.41-3.48,21.72l.29.22H40.81c-.62-.75-1.59-2.25-1.18-3.29S42,73.7,45,73.5l.58,0,.25-.52c2.8-5.72,2.85-15.65-3.34-24.93-6-9-2.27-21.64-2.23-21.77l.27-.88L39.71,25c-.07,0-6.69-2.8-6.4-6.43C36.59,15.9,42.59,11.89,42.66,11.85Z"/></svg>