<svg xmlns="http://www.w3.org/2000/svg" xmlns:xlink="http://www.w3.org/1999/xlink" version="1.1" x="0px" y="0px" viewBox="0 0 100 125" enable-background="new 0 0 100 100" xml:space="preserve"><g><path d="M71.503,53.492L55.592,37.967l1.804-0.958l21.57-18.728v9.076l13.932,16.906l-5.565,5.378   c-0.122,0.104-1.751,1.408-4.709,1.408c-2.641,0-5.476-1.005-8.438-2.99L71.503,53.492z M58.518,38.364l12.48,12.179l2.526-5.114   l0.844,0.613c2.965,2.156,5.742,3.249,8.255,3.249c2.294,0,3.498-0.927,3.548-0.967l4.336-4.196l-13.3-16.139v-5.852L58.518,38.364   z"/></g><g><path d="M64.016,83.742c-2.909,0-5.276-2.307-5.276-5.142v-8.013l-28.141-4.359v12.936c0,2.523-2.367,4.576-5.276,4.576   s-5.276-2.053-5.276-4.576V45.913c-1.424-1.759-6.217-7.992-5.348-11.133c0.221-0.802,0.77-1.379,1.586-1.669   c0.397-0.142,0.79-0.213,1.169-0.213c2.239,0,3.413,2.336,4.448,4.397c0.726,1.445,1.548,3.083,2.417,3.083h30.313l15.575,15.515   l-0.913,3.885v18.823C69.293,81.436,66.926,83.742,64.016,83.742z M28.839,64.176l31.659,4.903v9.521   c0,1.865,1.578,3.383,3.518,3.383c1.94,0,3.518-1.518,3.518-3.383l0.023-19.127l0.712-3.028L53.904,42.136H24.317   c-1.953,0-2.988-2.06-3.989-4.052c-0.846-1.686-1.722-3.428-2.876-3.428c-0.177,0-0.372,0.037-0.579,0.111   c-0.339,0.121-0.432,0.303-0.481,0.481c-0.496,1.792,2.749,6.805,5.21,9.792l0.201,0.244v33.88c0,1.554,1.578,2.817,3.518,2.817   s3.518-1.264,3.518-2.817V64.176z"/></g><g><path d="M37.118,83.889C37.117,83.889,37.117,83.889,37.118,83.889c-3.669-0.001-4.77-3.975-4.839-6.076l0-9.707l7.5,1.622   l1.631,7.116c0.029,0.111,0.797,3.221-0.626,5.29c-0.675,0.982-1.699,1.56-3.041,1.717C37.525,83.877,37.317,83.889,37.118,83.889z    M34.037,70.285v7.498c0.006,0.148,0.194,4.346,3.081,4.347c0,0,0,0,0,0c0.134,0,0.274-0.009,0.42-0.025   c0.826-0.098,1.413-0.413,1.793-0.964c0.807-1.168,0.539-3.2,0.368-3.885l-1.386-6.046L34.037,70.285z"/></g></svg>